<svg xmlns="http://www.w3.org/2000/svg" xmlns:xlink="http://www.w3.org/1999/xlink" contentStyleType="text/css" data-diagram-type="ACTIVITY" height="642px" preserveAspectRatio="none" style="width:670px;height:642px;background:#FFFFFF;" version="1.1" viewBox="0 0 670 642" width="670px" zoomAndPan="magnify"><defs/><g><ellipse cx="377.8091" cy="20" fill="#222222" rx="10" ry="10" style="stroke:#222222;stroke-width:1;"/><rect fill="#F1F1F1" height="33.9688" rx="12.5" ry="12.5" style="stroke:#181818;stroke-width:0.5;" width="143.5332" x="306.0425" y="50"/><text fill="#000000" font-family="sans-serif" font-size="12" lengthAdjust="spacing" textLength="123.5332" x="316.0425" y="71.1387">Consulter un produit</text><polygon fill="#F1F1F1" points="317.7952,103.9688,437.823,103.9688,449.823,115.9688,437.823,127.9688,317.7952,127.9688,305.7952,115.9688,317.7952,103.9688" style="stroke:#181818;stroke-width:0.5;"/><text fill="#000000" font-family="sans-serif" font-size="11" lengthAdjust="spacing" textLength="120.0278" x="317.7952" y="119.7769">Utilisateur connect&#233; ?</text><text fill="#000000" font-family="sans-serif" font-size="11" lengthAdjust="spacing" textLength="18.686" x="287.1091" y="113.3745">Oui</text><text fill="#000000" font-family="sans-serif" font-size="11" lengthAdjust="spacing" textLength="21.9302" x="449.823" y="113.3745">Non</text><rect fill="#F1F1F1" height="33.9688" rx="12.5" ry="12.5" style="stroke:#181818;stroke-width:0.5;" width="146.8613" x="141.209" y="137.9688"/><text fill="#000000" font-family="sans-serif" font-size="12" lengthAdjust="spacing" textLength="126.8613" x="151.209" y="159.1074">Cliquer sur "Acheter"</text><rect fill="#F1F1F1" height="33.9688" rx="12.5" ry="12.5" style="stroke:#181818;stroke-width:0.5;" width="188.9023" x="120.1885" y="191.9375"/><text fill="#000000" font-family="sans-serif" font-size="12" lengthAdjust="spacing" textLength="168.9023" x="130.1885" y="213.0762">Renseigner adresse &amp; email</text><rect fill="#F1F1F1" height="33.9688" rx="12.5" ry="12.5" style="stroke:#181818;stroke-width:0.5;" width="163.8418" x="132.7188" y="245.9063"/><text fill="#000000" font-family="sans-serif" font-size="12" lengthAdjust="spacing" textLength="143.8418" x="142.7188" y="267.0449">Soumettre le formulaire</text><rect fill="#F1F1F1" height="33.9688" rx="12.5" ry="12.5" style="stroke:#181818;stroke-width:0.5;" width="264.3242" x="82.4775" y="299.875"/><text fill="#000000" font-family="sans-serif" font-size="12" lengthAdjust="spacing" textLength="244.3242" x="92.4775" y="321.0137">Email envoy&#233; &#224; l'acheteur et au vendeur</text><rect fill="#F1F1F1" height="33.9688" rx="12.5" ry="12.5" style="stroke:#181818;stroke-width:0.5;" width="195.6348" x="116.8223" y="353.8438"/><text fill="#000000" font-family="sans-serif" font-size="12" lengthAdjust="spacing" textLength="175.6348" x="126.8223" y="374.9824">Achat enregistr&#233; (en attente)</text><polygon fill="#F1F1F1" points="160.6279,407.8125,268.6514,407.8125,280.6514,419.8125,268.6514,431.8125,160.6279,431.8125,148.6279,419.8125,160.6279,407.8125" style="stroke:#181818;stroke-width:0.5;"/><text fill="#000000" font-family="sans-serif" font-size="11" lengthAdjust="spacing" textLength="108.0234" x="160.6279" y="423.6206">Vendeur confirme ?</text><text fill="#000000" font-family="sans-serif" font-size="11" lengthAdjust="spacing" textLength="18.686" x="129.9419" y="417.2183">Oui</text><text fill="#000000" font-family="sans-serif" font-size="11" lengthAdjust="spacing" textLength="21.9302" x="280.6514" y="417.2183">Non</text><rect fill="#F1F1F1" height="33.9688" rx="12.5" ry="12.5" style="stroke:#181818;stroke-width:0.5;" width="202.8125" x="12.7871" y="441.8125"/><text fill="#000000" font-family="sans-serif" font-size="12" lengthAdjust="spacing" textLength="182.8125" x="22.7871" y="462.9512">Produit marqu&#233; comme vendu</text><rect fill="#F1F1F1" height="33.9688" rx="12.5" ry="12.5" style="stroke:#181818;stroke-width:0.5;" width="206.3867" x="11" y="495.7813"/><text fill="#000000" font-family="sans-serif" font-size="12" lengthAdjust="spacing" textLength="186.3867" x="21" y="516.9199">Email final envoy&#233; &#224; l&#8217;acheteur</text><rect fill="#F1F1F1" height="33.9688" rx="12.5" ry="12.5" style="stroke:#181818;stroke-width:0.5;" width="155.3984" x="237.3867" y="441.8125"/><text fill="#000000" font-family="sans-serif" font-size="12" lengthAdjust="spacing" textLength="135.3984" x="247.3867" y="462.9512">Achat reste en attente</text><polygon fill="#F1F1F1" points="214.6396,535.75,226.6396,547.75,214.6396,559.75,202.6396,547.75,214.6396,535.75" style="stroke:#181818;stroke-width:0.5;"/><rect fill="#F1F1F1" height="33.9688" rx="12.5" ry="12.5" style="stroke:#181818;stroke-width:0.5;" width="236.3867" x="422.7852" y="137.9688"/><text fill="#000000" font-family="sans-serif" font-size="12" lengthAdjust="spacing" textLength="216.3867" x="432.7852" y="159.1074">Redirection vers page de connexion</text><polygon fill="#F1F1F1" points="377.8091,565.75,389.8091,577.75,377.8091,589.75,365.8091,577.75,377.8091,565.75" style="stroke:#181818;stroke-width:0.5;"/><ellipse cx="377.8091" cy="620.75" fill="none" rx="11" ry="11" style="stroke:#222222;stroke-width:1;"/><ellipse cx="377.8091" cy="620.75" fill="#222222" rx="6" ry="6" style="stroke:#222222;stroke-width:1;"/><line style="stroke:#181818;stroke-width:1;" x1="377.8091" x2="377.8091" y1="30" y2="50"/><polygon fill="#181818" points="373.8091,40,377.8091,50,381.8091,40,377.8091,44" style="stroke:#181818;stroke-width:1;"/><line style="stroke:#181818;stroke-width:1;" x1="214.6396" x2="214.6396" y1="171.9375" y2="191.9375"/><polygon fill="#181818" points="210.6396,181.9375,214.6396,191.9375,218.6396,181.9375,214.6396,185.9375" style="stroke:#181818;stroke-width:1;"/><line style="stroke:#181818;stroke-width:1;" x1="214.6396" x2="214.6396" y1="225.9063" y2="245.9063"/><polygon fill="#181818" points="210.6396,235.9063,214.6396,245.9063,218.6396,235.9063,214.6396,239.9063" style="stroke:#181818;stroke-width:1;"/><line style="stroke:#181818;stroke-width:1;" x1="214.6396" x2="214.6396" y1="279.875" y2="299.875"/><polygon fill="#181818" points="210.6396,289.875,214.6396,299.875,218.6396,289.875,214.6396,293.875" style="stroke:#181818;stroke-width:1;"/><line style="stroke:#181818;stroke-width:1;" x1="214.6396" x2="214.6396" y1="333.8438" y2="353.8438"/><polygon fill="#181818" points="210.6396,343.8438,214.6396,353.8438,218.6396,343.8438,214.6396,347.8438" style="stroke:#181818;stroke-width:1;"/><line style="stroke:#181818;stroke-width:1;" x1="114.1934" x2="114.1934" y1="475.7813" y2="495.7813"/><polygon fill="#181818" points="110.1934,485.7813,114.1934,495.7813,118.1934,485.7813,114.1934,489.7813" style="stroke:#181818;stroke-width:1;"/><line style="stroke:#181818;stroke-width:1;" x1="148.6279" x2="114.1934" y1="419.8125" y2="419.8125"/><line style="stroke:#181818;stroke-width:1;" x1="114.1934" x2="114.1934" y1="419.8125" y2="441.8125"/><polygon fill="#181818" points="110.1934,431.8125,114.1934,441.8125,118.1934,431.8125,114.1934,435.8125" style="stroke:#181818;stroke-width:1;"/><line style="stroke:#181818;stroke-width:1;" x1="280.6514" x2="315.0859" y1="419.8125" y2="419.8125"/><line style="stroke:#181818;stroke-width:1;" x1="315.0859" x2="315.0859" y1="419.8125" y2="441.8125"/><polygon fill="#181818" points="311.0859,431.8125,315.0859,441.8125,319.0859,431.8125,315.0859,435.8125" style="stroke:#181818;stroke-width:1;"/><line style="stroke:#181818;stroke-width:1;" x1="114.1934" x2="114.1934" y1="529.75" y2="547.75"/><line style="stroke:#181818;stroke-width:1;" x1="114.1934" x2="202.6396" y1="547.75" y2="547.75"/><polygon fill="#181818" points="192.6396,543.75,202.6396,547.75,192.6396,551.75,196.6396,547.75" style="stroke:#181818;stroke-width:1;"/><line style="stroke:#181818;stroke-width:1;" x1="315.0859" x2="315.0859" y1="475.7813" y2="547.75"/><line style="stroke:#181818;stroke-width:1;" x1="315.0859" x2="226.6396" y1="547.75" y2="547.75"/><polygon fill="#181818" points="236.6396,543.75,226.6396,547.75,236.6396,551.75,232.6396,547.75" style="stroke:#181818;stroke-width:1;"/><line style="stroke:#181818;stroke-width:1;" x1="214.6396" x2="214.6396" y1="387.8125" y2="407.8125"/><polygon fill="#181818" points="210.6396,397.8125,214.6396,407.8125,218.6396,397.8125,214.6396,401.8125" style="stroke:#181818;stroke-width:1;"/><line style="stroke:#181818;stroke-width:1;" x1="305.7952" x2="214.6396" y1="115.9688" y2="115.9688"/><line style="stroke:#181818;stroke-width:1;" x1="214.6396" x2="214.6396" y1="115.9688" y2="137.9688"/><polygon fill="#181818" points="210.6396,127.9688,214.6396,137.9688,218.6396,127.9688,214.6396,131.9688" style="stroke:#181818;stroke-width:1;"/><line style="stroke:#181818;stroke-width:1;" x1="449.823" x2="540.9785" y1="115.9688" y2="115.9688"/><line style="stroke:#181818;stroke-width:1;" x1="540.9785" x2="540.9785" y1="115.9688" y2="137.9688"/><polygon fill="#181818" points="536.9785,127.9688,540.9785,137.9688,544.9785,127.9688,540.9785,131.9688" style="stroke:#181818;stroke-width:1;"/><line style="stroke:#181818;stroke-width:1;" x1="214.6396" x2="214.6396" y1="559.75" y2="577.75"/><line style="stroke:#181818;stroke-width:1;" x1="214.6396" x2="365.8091" y1="577.75" y2="577.75"/><polygon fill="#181818" points="355.8091,573.75,365.8091,577.75,355.8091,581.75,359.8091,577.75" style="stroke:#181818;stroke-width:1;"/><line style="stroke:#181818;stroke-width:1;" x1="540.9785" x2="540.9785" y1="171.9375" y2="577.75"/><line style="stroke:#181818;stroke-width:1;" x1="540.9785" x2="389.8091" y1="577.75" y2="577.75"/><polygon fill="#181818" points="399.8091,573.75,389.8091,577.75,399.8091,581.75,395.8091,577.75" style="stroke:#181818;stroke-width:1;"/><line style="stroke:#181818;stroke-width:1;" x1="377.8091" x2="377.8091" y1="83.9688" y2="103.9688"/><polygon fill="#181818" points="373.8091,93.9688,377.8091,103.9688,381.8091,93.9688,377.8091,97.9688" style="stroke:#181818;stroke-width:1;"/><line style="stroke:#181818;stroke-width:1;" x1="377.8091" x2="377.8091" y1="589.75" y2="609.75"/><polygon fill="#181818" points="373.8091,599.75,377.8091,609.75,381.8091,599.75,377.8091,603.75" style="stroke:#181818;stroke-width:1;"/><!--SRC=[PP5BJiGm38RtFOKr2sYlC5qWD68B20Jxg74xbbAdupWZs74DTcmvnzo4a-0q83HYsVhp_t2IEj5ckukSSb0Ko0oBH9z9-uP6Q9-K0YMdc0M6o8o3dZxXgWFT8qDxbwbh0BQxG8TiwycmpVMmHzFQz6NoW9oG9hQXyu8f8Lm0pex2EdwCUKPLGGW8OvGv1qU2w-ocK81yZA_cUVg0SEbMQJD11PVXYEpjQwNDrQdHWXCb5TjeBQ5JHLRi2bBwFDUDqcKacV5V5LEwhmU0sSaXcyuGPmEBL-uhKPEDnEuytzVR-s_2GcAmjkrjv1_X6j6Ee0X_sLQIFOtD6M-NytQ9GIcocKk2nKq87kixlDZllgbxIUFo3G00]--></g></svg>