<svg xmlns="http://www.w3.org/2000/svg" xmlns:xlink="http://www.w3.org/1999/xlink" contentStyleType="text/css" data-diagram-type="CLASS" height="1301px" preserveAspectRatio="none" style="width:657px;height:1301px;background:#FFFFFF;" version="1.1" viewBox="0 0 657 1301" width="657px" zoomAndPan="magnify"><defs/><g><!--class Utilisateur--><g class="entity" data-entity="Utilisateur" data-source-line="2" data-uid="ent0002" id="entity_Utilisateur"><rect fill="#F1F1F1" height="145.7813" rx="2.5" ry="2.5" style="stroke:#181818;stroke-width:0.5;" width="178.4072" x="147.38" y="164.59"/><ellipse cx="196.3287" cy="180.59" fill="#A9DCDF" rx="11" ry="11" style="stroke:#181818;stroke-width:1;"/><path d="M196.4381,175.9338 L195.2819,181.0119 L197.61,181.0119 L196.4381,175.9338 Z M194.9537,173.6994 L197.9381,173.6994 L201.2975,186.09 L198.8444,186.09 L198.0787,183.0275 L194.7975,183.0275 L194.0475,186.09 L191.61,186.09 L194.9537,173.6994 Z " fill="#000000"/><text fill="#000000" font-family="sans-serif" font-size="14" font-style="italic" lengthAdjust="spacing" textLength="72.0098" x="216.8287" y="185.4367">Utilisateur</text><line style="stroke:#181818;stroke-width:0.5;" x1="148.38" x2="324.7872" y1="196.59" y2="196.59"/><rect fill="none" height="6" style="stroke:#C82930;stroke-width:1;" width="6" x="155.38" y="207.2384"/><text fill="#000000" font-family="sans-serif" font-size="14" lengthAdjust="spacing" textLength="40.1953" x="167.38" y="213.5851">id: int</text><rect fill="none" height="6" style="stroke:#C82930;stroke-width:1;" width="6" x="155.38" y="223.5353"/><text fill="#000000" font-family="sans-serif" font-size="14" lengthAdjust="spacing" textLength="97.9453" x="167.38" y="229.882">username: str</text><rect fill="none" height="6" style="stroke:#C82930;stroke-width:1;" width="6" x="155.38" y="239.8322"/><text fill="#000000" font-family="sans-serif" font-size="14" lengthAdjust="spacing" textLength="66.3154" x="167.38" y="246.1789">email: str</text><rect fill="none" height="6" style="stroke:#C82930;stroke-width:1;" width="6" x="155.38" y="256.1291"/><text fill="#000000" font-family="sans-serif" font-size="14" lengthAdjust="spacing" textLength="127.5654" x="167.38" y="262.4757">mot_de_passe: str</text><rect fill="none" height="6" style="stroke:#C82930;stroke-width:1;" width="6" x="155.38" y="272.4259"/><text fill="#000000" font-family="sans-serif" font-size="14" lengthAdjust="spacing" textLength="54.5303" x="167.38" y="278.7726">role: str</text><rect fill="none" height="6" style="stroke:#C82930;stroke-width:1;" width="6" x="155.38" y="288.7228"/><text fill="#000000" font-family="sans-serif" font-size="14" lengthAdjust="spacing" textLength="152.4072" x="167.38" y="295.0695">date_inscription: date</text><line style="stroke:#181818;stroke-width:0.5;" x1="148.38" x2="324.7872" y1="302.3713" y2="302.3713"/></g><!--class Vendeur--><g class="entity" data-entity="Vendeur" data-source-line="11" data-uid="ent0003" id="entity_Vendeur"><rect fill="#F1F1F1" height="96.8906" rx="2.5" ry="2.5" style="stroke:#181818;stroke-width:0.5;" width="153.8594" x="288.65" y="387.37"/><ellipse cx="331.8501" cy="403.37" fill="#ADD1B2" rx="11" ry="11" style="stroke:#181818;stroke-width:1;"/><path d="M334.8189,409.0106 Q334.2408,409.3075 333.6001,409.4481 Q332.9595,409.6044 332.2564,409.6044 Q329.7564,409.6044 328.4283,407.9638 Q327.1158,406.3075 327.1158,403.1825 Q327.1158,400.0575 328.4283,398.4013 Q329.7564,396.745 332.2564,396.745 Q332.9595,396.745 333.6001,396.9013 Q334.2564,397.0575 334.8189,397.3544 L334.8189,400.0731 Q334.1939,399.495 333.6001,399.2294 Q333.0064,398.9481 332.3814,398.9481 Q331.0376,398.9481 330.3501,400.0263 Q329.6626,401.0888 329.6626,403.1825 Q329.6626,405.2763 330.3501,406.3544 Q331.0376,407.4169 332.3814,407.4169 Q333.0064,407.4169 333.6001,407.1513 Q334.1939,406.87 334.8189,406.2919 L334.8189,409.0106 Z " fill="#000000"/><text fill="#000000" font-family="sans-serif" font-size="14" lengthAdjust="spacing" textLength="59.1924" x="352.1168" y="408.2167">Vendeur</text><line style="stroke:#181818;stroke-width:0.5;" x1="289.65" x2="441.5094" y1="419.37" y2="419.37"/><rect fill="none" height="6" style="stroke:#C82930;stroke-width:1;" width="6" x="296.65" y="430.0184"/><text fill="#000000" font-family="sans-serif" font-size="14" lengthAdjust="spacing" textLength="127.8594" x="308.65" y="436.3651">boutique_nom: str</text><line style="stroke:#181818;stroke-width:0.5;" x1="289.65" x2="441.5094" y1="443.6669" y2="443.6669"/><ellipse cx="299.65" cy="457.3153" fill="#84BE84" rx="3" ry="3" style="stroke:#038048;stroke-width:1;"/><text fill="#000000" font-family="sans-serif" font-size="14" lengthAdjust="spacing" textLength="110.5918" x="308.65" y="460.662">ajouterProduit()</text><ellipse cx="299.65" cy="473.6122" fill="#84BE84" rx="3" ry="3" style="stroke:#038048;stroke-width:1;"/><text fill="#000000" font-family="sans-serif" font-size="14" lengthAdjust="spacing" textLength="119.8066" x="308.65" y="476.9589">confirmerVente()</text></g><!--class Acheteur--><g class="entity" data-entity="Acheteur" data-source-line="16" data-uid="ent0004" id="entity_Acheteur"><rect fill="#F1F1F1" height="96.8906" rx="2.5" ry="2.5" style="stroke:#181818;stroke-width:0.5;" width="162.7188" x="212.22" y="1007.12"/><ellipse cx="257.5833" cy="1023.12" fill="#ADD1B2" rx="11" ry="11" style="stroke:#181818;stroke-width:1;"/><path d="M260.552,1028.7606 Q259.9739,1029.0575 259.3333,1029.1981 Q258.6927,1029.3544 257.9895,1029.3544 Q255.4895,1029.3544 254.1614,1027.7138 Q252.8489,1026.0575 252.8489,1022.9325 Q252.8489,1019.8075 254.1614,1018.1513 Q255.4895,1016.495 257.9895,1016.495 Q258.6927,1016.495 259.3333,1016.6513 Q259.9895,1016.8075 260.552,1017.1044 L260.552,1019.8231 Q259.927,1019.245 259.3333,1018.9794 Q258.7395,1018.6981 258.1145,1018.6981 Q256.7708,1018.6981 256.0833,1019.7763 Q255.3958,1020.8388 255.3958,1022.9325 Q255.3958,1025.0263 256.0833,1026.1044 Q256.7708,1027.1669 258.1145,1027.1669 Q258.7395,1027.1669 259.3333,1026.9013 Q259.927,1026.62 260.552,1026.0419 L260.552,1028.7606 Z " fill="#000000"/><text fill="#000000" font-family="sans-serif" font-size="14" lengthAdjust="spacing" textLength="63.4922" x="278.0833" y="1027.9667">Acheteur</text><line style="stroke:#181818;stroke-width:0.5;" x1="213.22" x2="373.9388" y1="1039.12" y2="1039.12"/><line style="stroke:#181818;stroke-width:0.5;" x1="213.22" x2="373.9388" y1="1047.12" y2="1047.12"/><ellipse cx="223.22" cy="1060.7684" fill="#84BE84" rx="3" ry="3" style="stroke:#038048;stroke-width:1;"/><text fill="#000000" font-family="sans-serif" font-size="14" lengthAdjust="spacing" textLength="114.4473" x="232.22" y="1064.1151">acheterProduit()</text><ellipse cx="223.22" cy="1077.0653" fill="#84BE84" rx="3" ry="3" style="stroke:#038048;stroke-width:1;"/><text fill="#000000" font-family="sans-serif" font-size="14" lengthAdjust="spacing" textLength="136.7188" x="232.22" y="1080.412">commenterArticle()</text><ellipse cx="223.22" cy="1093.3622" fill="#84BE84" rx="3" ry="3" style="stroke:#038048;stroke-width:1;"/><text fill="#000000" font-family="sans-serif" font-size="14" lengthAdjust="spacing" textLength="86.0918" x="232.22" y="1096.7089">likerArticle()</text></g><!--class Produit--><g class="entity" data-entity="Produit" data-source-line="26" data-uid="ent0007" id="entity_Produit"><rect fill="#F1F1F1" height="162.0781" rx="2.5" ry="2.5" style="stroke:#181818;stroke-width:0.5;" width="140.8848" x="293.14" y="561.26"/><ellipse cx="334.6821" cy="577.26" fill="#ADD1B2" rx="11" ry="11" style="stroke:#181818;stroke-width:1;"/><path d="M337.6508,582.9006 Q337.0727,583.1975 336.4321,583.3381 Q335.7915,583.4944 335.0883,583.4944 Q332.5883,583.4944 331.2602,581.8538 Q329.9477,580.1975 329.9477,577.0725 Q329.9477,573.9475 331.2602,572.2913 Q332.5883,570.635 335.0883,570.635 Q335.7915,570.635 336.4321,570.7913 Q337.0883,570.9475 337.6508,571.2444 L337.6508,573.9631 Q337.0258,573.385 336.4321,573.1194 Q335.8383,572.8381 335.2133,572.8381 Q333.8696,572.8381 333.1821,573.9163 Q332.4946,574.9788 332.4946,577.0725 Q332.4946,579.1663 333.1821,580.2444 Q333.8696,581.3069 335.2133,581.3069 Q335.8383,581.3069 336.4321,581.0413 Q337.0258,580.76 337.6508,580.1819 L337.6508,582.9006 Z " fill="#000000"/><text fill="#000000" font-family="sans-serif" font-size="14" lengthAdjust="spacing" textLength="49.9023" x="354.5803" y="582.1067">Produit</text><line style="stroke:#181818;stroke-width:0.5;" x1="294.14" x2="433.0248" y1="593.26" y2="593.26"/><rect fill="none" height="6" style="stroke:#C82930;stroke-width:1;" width="6" x="301.14" y="603.9084"/><text fill="#000000" font-family="sans-serif" font-size="14" lengthAdjust="spacing" textLength="40.1953" x="313.14" y="610.2551">id: int</text><rect fill="none" height="6" style="stroke:#C82930;stroke-width:1;" width="6" x="301.14" y="620.2053"/><text fill="#000000" font-family="sans-serif" font-size="14" lengthAdjust="spacing" textLength="56.9434" x="313.14" y="626.552">titre: str</text><rect fill="none" height="6" style="stroke:#C82930;stroke-width:1;" width="6" x="301.14" y="636.5022"/><text fill="#000000" font-family="sans-serif" font-size="14" lengthAdjust="spacing" textLength="114.8848" x="313.14" y="642.8489">description: text</text><rect fill="none" height="6" style="stroke:#C82930;stroke-width:1;" width="6" x="301.14" y="652.7991"/><text fill="#000000" font-family="sans-serif" font-size="14" lengthAdjust="spacing" textLength="67.4365" x="313.14" y="659.1457">prix: float</text><rect fill="none" height="6" style="stroke:#C82930;stroke-width:1;" width="6" x="301.14" y="669.0959"/><text fill="#000000" font-family="sans-serif" font-size="14" lengthAdjust="spacing" textLength="71.3125" x="313.14" y="675.4426">image: str</text><rect fill="none" height="6" style="stroke:#C82930;stroke-width:1;" width="6" x="301.14" y="685.3928"/><text fill="#000000" font-family="sans-serif" font-size="14" lengthAdjust="spacing" textLength="110.749" x="313.14" y="691.7395">disponible: bool</text><rect fill="none" height="6" style="stroke:#C82930;stroke-width:1;" width="6" x="301.14" y="701.6897"/><text fill="#000000" font-family="sans-serif" font-size="14" lengthAdjust="spacing" textLength="114.7002" x="313.14" y="708.0364">date_ajout: date</text><line style="stroke:#181818;stroke-width:0.5;" x1="294.14" x2="433.0248" y1="715.3381" y2="715.3381"/></g><!--class Article--><g class="entity" data-entity="Article" data-source-line="38" data-uid="ent0009" id="entity_Article"><rect fill="#F1F1F1" height="129.4844" rx="2.5" ry="2.5" style="stroke:#181818;stroke-width:0.5;" width="131.9502" x="420.6" y="990.83"/><ellipse cx="460.3671" cy="1006.83" fill="#ADD1B2" rx="11" ry="11" style="stroke:#181818;stroke-width:1;"/><path d="M463.3359,1012.4706 Q462.7578,1012.7675 462.1171,1012.9081 Q461.4765,1013.0644 460.7734,1013.0644 Q458.2734,1013.0644 456.9453,1011.4238 Q455.6328,1009.7675 455.6328,1006.6425 Q455.6328,1003.5175 456.9453,1001.8613 Q458.2734,1000.205 460.7734,1000.205 Q461.4765,1000.205 462.1171,1000.3613 Q462.7734,1000.5175 463.3359,1000.8144 L463.3359,1003.5331 Q462.7109,1002.955 462.1171,1002.6894 Q461.5234,1002.4081 460.8984,1002.4081 Q459.5546,1002.4081 458.8671,1003.4863 Q458.1796,1004.5488 458.1796,1006.6425 Q458.1796,1008.7363 458.8671,1009.8144 Q459.5546,1010.8769 460.8984,1010.8769 Q461.5234,1010.8769 462.1171,1010.6113 Q462.7109,1010.33 463.3359,1009.7519 L463.3359,1012.4706 Z " fill="#000000"/><text fill="#000000" font-family="sans-serif" font-size="14" lengthAdjust="spacing" textLength="44.9121" x="479.8709" y="1011.6767">Article</text><line style="stroke:#181818;stroke-width:0.5;" x1="421.6" x2="551.5502" y1="1022.83" y2="1022.83"/><rect fill="none" height="6" style="stroke:#C82930;stroke-width:1;" width="6" x="428.6" y="1033.4784"/><text fill="#000000" font-family="sans-serif" font-size="14" lengthAdjust="spacing" textLength="40.1953" x="440.6" y="1039.8251">id: int</text><rect fill="none" height="6" style="stroke:#C82930;stroke-width:1;" width="6" x="428.6" y="1049.7753"/><text fill="#000000" font-family="sans-serif" font-size="14" lengthAdjust="spacing" textLength="56.9434" x="440.6" y="1056.122">titre: str</text><rect fill="none" height="6" style="stroke:#C82930;stroke-width:1;" width="6" x="428.6" y="1066.0722"/><text fill="#000000" font-family="sans-serif" font-size="14" lengthAdjust="spacing" textLength="94.0283" x="440.6" y="1072.4189">contenu: text</text><rect fill="none" height="6" style="stroke:#C82930;stroke-width:1;" width="6" x="428.6" y="1082.3691"/><text fill="#000000" font-family="sans-serif" font-size="14" lengthAdjust="spacing" textLength="71.3125" x="440.6" y="1088.7157">image: str</text><rect fill="none" height="6" style="stroke:#C82930;stroke-width:1;" width="6" x="428.6" y="1098.6659"/><text fill="#000000" font-family="sans-serif" font-size="14" lengthAdjust="spacing" textLength="105.9502" x="440.6" y="1105.0126">date_pub: date</text><line style="stroke:#181818;stroke-width:0.5;" x1="421.6" x2="551.5502" y1="1112.3144" y2="1112.3144"/></g><!--class Commentaire--><g class="entity" data-entity="Commentaire" data-source-line="45" data-uid="ent0010" id="entity_Commentaire"><rect fill="#F1F1F1" height="96.8906" rx="2.5" ry="2.5" style="stroke:#181818;stroke-width:0.5;" width="129.9336" x="224.61" y="1197.31"/><ellipse cx="240.7368" cy="1213.31" fill="#ADD1B2" rx="11" ry="11" style="stroke:#181818;stroke-width:1;"/><path d="M243.7055,1218.9506 Q243.1274,1219.2475 242.4868,1219.3881 Q241.8461,1219.5444 241.143,1219.5444 Q238.643,1219.5444 237.3149,1217.9038 Q236.0024,1216.2475 236.0024,1213.1225 Q236.0024,1209.9975 237.3149,1208.3413 Q238.643,1206.685 241.143,1206.685 Q241.8461,1206.685 242.4868,1206.8413 Q243.143,1206.9975 243.7055,1207.2944 L243.7055,1210.0131 Q243.0805,1209.435 242.4868,1209.1694 Q241.893,1208.8881 241.268,1208.8881 Q239.9243,1208.8881 239.2368,1209.9663 Q238.5493,1211.0288 238.5493,1213.1225 Q238.5493,1215.2163 239.2368,1216.2944 Q239.9243,1217.3569 241.268,1217.3569 Q241.893,1217.3569 242.4868,1217.0913 Q243.0805,1216.81 243.7055,1216.2319 L243.7055,1218.9506 Z " fill="#000000"/><text fill="#000000" font-family="sans-serif" font-size="14" lengthAdjust="spacing" textLength="95.4297" x="254.9871" y="1218.1567">Commentaire</text><line style="stroke:#181818;stroke-width:0.5;" x1="225.61" x2="353.5436" y1="1229.31" y2="1229.31"/><rect fill="none" height="6" style="stroke:#C82930;stroke-width:1;" width="6" x="232.61" y="1239.9584"/><text fill="#000000" font-family="sans-serif" font-size="14" lengthAdjust="spacing" textLength="40.1953" x="244.61" y="1246.3051">id: int</text><rect fill="none" height="6" style="stroke:#C82930;stroke-width:1;" width="6" x="232.61" y="1256.2553"/><text fill="#000000" font-family="sans-serif" font-size="14" lengthAdjust="spacing" textLength="94.0283" x="244.61" y="1262.602">contenu: text</text><rect fill="none" height="6" style="stroke:#C82930;stroke-width:1;" width="6" x="232.61" y="1272.5522"/><text fill="#000000" font-family="sans-serif" font-size="14" lengthAdjust="spacing" textLength="103.9336" x="244.61" y="1278.8989">date: datetime</text><line style="stroke:#181818;stroke-width:0.5;" x1="225.61" x2="353.5436" y1="1286.2006" y2="1286.2006"/></g><!--class Tag--><g class="entity" data-entity="Tag" data-source-line="50" data-uid="ent0011" id="entity_Tag"><rect fill="#F1F1F1" height="80.5938" rx="2.5" ry="2.5" style="stroke:#181818;stroke-width:0.5;" width="84.7822" x="536.19" y="1205.46"/><ellipse cx="563.2341" cy="1221.46" fill="#ADD1B2" rx="11" ry="11" style="stroke:#181818;stroke-width:1;"/><path d="M566.2028,1227.1006 Q565.6247,1227.3975 564.9841,1227.5381 Q564.3435,1227.6944 563.6403,1227.6944 Q561.1403,1227.6944 559.8122,1226.0538 Q558.4997,1224.3975 558.4997,1221.2725 Q558.4997,1218.1475 559.8122,1216.4913 Q561.1403,1214.835 563.6403,1214.835 Q564.3435,1214.835 564.9841,1214.9913 Q565.6403,1215.1475 566.2028,1215.4444 L566.2028,1218.1631 Q565.5778,1217.585 564.9841,1217.3194 Q564.3903,1217.0381 563.7653,1217.0381 Q562.4216,1217.0381 561.7341,1218.1163 Q561.0466,1219.1788 561.0466,1221.2725 Q561.0466,1223.3663 561.7341,1224.4444 Q562.4216,1225.5069 563.7653,1225.5069 Q564.3903,1225.5069 564.9841,1225.2413 Q565.5778,1224.96 566.2028,1224.3819 L566.2028,1227.1006 Z " fill="#000000"/><text fill="#000000" font-family="sans-serif" font-size="14" lengthAdjust="spacing" textLength="26.0176" x="579.9106" y="1226.3067">Tag</text><line style="stroke:#181818;stroke-width:0.5;" x1="537.19" x2="619.9722" y1="1237.46" y2="1237.46"/><rect fill="none" height="6" style="stroke:#C82930;stroke-width:1;" width="6" x="544.19" y="1248.1084"/><text fill="#000000" font-family="sans-serif" font-size="14" lengthAdjust="spacing" textLength="40.1953" x="556.19" y="1254.4551">id: int</text><rect fill="none" height="6" style="stroke:#C82930;stroke-width:1;" width="6" x="544.19" y="1264.4053"/><text fill="#000000" font-family="sans-serif" font-size="14" lengthAdjust="spacing" textLength="58.7822" x="556.19" y="1270.752">nom: str</text><line style="stroke:#181818;stroke-width:0.5;" x1="537.19" x2="619.9722" y1="1278.0538" y2="1278.0538"/></g><!--class Like--><g class="entity" data-entity="Like" data-source-line="54" data-uid="ent0012" id="entity_Like"><rect fill="#F1F1F1" height="64.2969" rx="2.5" ry="2.5" style="stroke:#181818;stroke-width:0.5;" width="66.1953" x="398.48" y="1213.61"/><ellipse cx="416.0833" cy="1229.61" fill="#ADD1B2" rx="11" ry="11" style="stroke:#181818;stroke-width:1;"/><path d="M419.0521,1235.2506 Q418.4739,1235.5475 417.8333,1235.6881 Q417.1927,1235.8444 416.4896,1235.8444 Q413.9896,1235.8444 412.6614,1234.2038 Q411.3489,1232.5475 411.3489,1229.4225 Q411.3489,1226.2975 412.6614,1224.6413 Q413.9896,1222.985 416.4896,1222.985 Q417.1927,1222.985 417.8333,1223.1413 Q418.4896,1223.2975 419.0521,1223.5944 L419.0521,1226.3131 Q418.4271,1225.735 417.8333,1225.4694 Q417.2396,1225.1881 416.6146,1225.1881 Q415.2708,1225.1881 414.5833,1226.2663 Q413.8958,1227.3288 413.8958,1229.4225 Q413.8958,1231.5163 414.5833,1232.5944 Q415.2708,1233.6569 416.6146,1233.6569 Q417.2396,1233.6569 417.8333,1233.3913 Q418.4271,1233.11 419.0521,1232.5319 L419.0521,1235.2506 Z " fill="#000000"/><text fill="#000000" font-family="sans-serif" font-size="14" lengthAdjust="spacing" textLength="28.4102" x="430.6618" y="1234.4567">Like</text><line style="stroke:#181818;stroke-width:0.5;" x1="399.48" x2="463.6753" y1="1245.61" y2="1245.61"/><rect fill="none" height="6" style="stroke:#C82930;stroke-width:1;" width="6" x="406.48" y="1256.2584"/><text fill="#000000" font-family="sans-serif" font-size="14" lengthAdjust="spacing" textLength="40.1953" x="418.48" y="1262.6051">id: int</text><line style="stroke:#181818;stroke-width:0.5;" x1="399.48" x2="463.6753" y1="1269.9069" y2="1269.9069"/></g><!--class Achat--><g class="entity" data-entity="Achat" data-source-line="68" data-uid="ent0020" id="entity_Achat"><rect fill="#F1F1F1" height="129.4844" rx="2.5" ry="2.5" style="stroke:#181818;stroke-width:0.5;" width="144.5215" x="288.32" y="800.34"/><ellipse cx="336.2228" cy="816.34" fill="#ADD1B2" rx="11" ry="11" style="stroke:#181818;stroke-width:1;"/><path d="M339.1916,821.9806 Q338.6135,822.2775 337.9728,822.4181 Q337.3322,822.5744 336.6291,822.5744 Q334.1291,822.5744 332.801,820.9338 Q331.4885,819.2775 331.4885,816.1525 Q331.4885,813.0275 332.801,811.3713 Q334.1291,809.715 336.6291,809.715 Q337.3322,809.715 337.9728,809.8713 Q338.6291,810.0275 339.1916,810.3244 L339.1916,813.0431 Q338.5666,812.465 337.9728,812.1994 Q337.3791,811.9181 336.7541,811.9181 Q335.4103,811.9181 334.7228,812.9963 Q334.0353,814.0588 334.0353,816.1525 Q334.0353,818.2463 334.7228,819.3244 Q335.4103,820.3869 336.7541,820.3869 Q337.3791,820.3869 337.9728,820.1213 Q338.5666,819.84 339.1916,819.2619 L339.1916,821.9806 Z " fill="#000000"/><text fill="#000000" font-family="sans-serif" font-size="14" lengthAdjust="spacing" textLength="40.2158" x="356.7228" y="821.1867">Achat</text><line style="stroke:#181818;stroke-width:0.5;" x1="289.32" x2="431.8415" y1="832.34" y2="832.34"/><rect fill="none" height="6" style="stroke:#C82930;stroke-width:1;" width="6" x="296.32" y="842.9884"/><text fill="#000000" font-family="sans-serif" font-size="14" lengthAdjust="spacing" textLength="40.1953" x="308.32" y="849.3351">id: int</text><rect fill="none" height="6" style="stroke:#C82930;stroke-width:1;" width="6" x="296.32" y="859.2853"/><text fill="#000000" font-family="sans-serif" font-size="14" lengthAdjust="spacing" textLength="82.7422" x="308.32" y="865.632">adresse: str</text><rect fill="none" height="6" style="stroke:#C82930;stroke-width:1;" width="6" x="296.32" y="875.5822"/><text fill="#000000" font-family="sans-serif" font-size="14" lengthAdjust="spacing" textLength="66.3154" x="308.32" y="881.9289">email: str</text><rect fill="none" height="6" style="stroke:#C82930;stroke-width:1;" width="6" x="296.32" y="891.8791"/><text fill="#000000" font-family="sans-serif" font-size="14" lengthAdjust="spacing" textLength="118.5215" x="308.32" y="898.2257">date_achat: date</text><rect fill="none" height="6" style="stroke:#C82930;stroke-width:1;" width="6" x="296.32" y="908.1759"/><text fill="#000000" font-family="sans-serif" font-size="14" lengthAdjust="spacing" textLength="101.0352" x="308.32" y="914.5226">confirm&#233;: bool</text><line style="stroke:#181818;stroke-width:0.5;" x1="289.32" x2="431.8415" y1="921.8244" y2="921.8244"/></g><!--class Conversation--><g class="entity" data-entity="Conversation" data-source-line="80" data-uid="ent0024" id="entity_Conversation"><rect fill="#F1F1F1" height="80.5938" rx="2.5" ry="2.5" style="stroke:#181818;stroke-width:0.5;" width="194.3965" x="26.38" y="7"/><ellipse cx="73.0489" cy="23" fill="#ADD1B2" rx="11" ry="11" style="stroke:#181818;stroke-width:1;"/><path d="M76.0177,28.6406 Q75.4396,28.9375 74.7989,29.0781 Q74.1583,29.2344 73.4552,29.2344 Q70.9552,29.2344 69.6271,27.5938 Q68.3146,25.9375 68.3146,22.8125 Q68.3146,19.6875 69.6271,18.0313 Q70.9552,16.375 73.4552,16.375 Q74.1583,16.375 74.7989,16.5313 Q75.4552,16.6875 76.0177,16.9844 L76.0177,19.7031 Q75.3927,19.125 74.7989,18.8594 Q74.2052,18.5781 73.5802,18.5781 Q72.2364,18.5781 71.5489,19.6563 Q70.8614,20.7188 70.8614,22.8125 Q70.8614,24.9063 71.5489,25.9844 Q72.2364,27.0469 73.5802,27.0469 Q74.2052,27.0469 74.7989,26.7813 Q75.3927,26.5 76.0177,25.9219 L76.0177,28.6406 Z " fill="#000000"/><text fill="#000000" font-family="sans-serif" font-size="14" lengthAdjust="spacing" textLength="92.5586" x="93.5489" y="27.8467">Conversation</text><line style="stroke:#181818;stroke-width:0.5;" x1="27.38" x2="219.7765" y1="39" y2="39"/><rect fill="none" height="6" style="stroke:#C82930;stroke-width:1;" width="6" x="34.38" y="49.6484"/><text fill="#000000" font-family="sans-serif" font-size="14" lengthAdjust="spacing" textLength="40.1953" x="46.38" y="55.9951">id: int</text><rect fill="none" height="6" style="stroke:#C82930;stroke-width:1;" width="6" x="34.38" y="65.9453"/><text fill="#000000" font-family="sans-serif" font-size="14" lengthAdjust="spacing" textLength="168.3965" x="46.38" y="72.292">date_creation: datetime</text><line style="stroke:#181818;stroke-width:0.5;" x1="27.38" x2="219.7765" y1="79.5938" y2="79.5938"/></g><!--class Message--><g class="entity" data-entity="Message" data-source-line="84" data-uid="ent0025" id="entity_Message"><rect fill="#F1F1F1" height="96.8906" rx="2.5" ry="2.5" style="stroke:#181818;stroke-width:0.5;" width="175.1602" x="7" y="387.37"/><ellipse cx="59.6504" cy="403.37" fill="#ADD1B2" rx="11" ry="11" style="stroke:#181818;stroke-width:1;"/><path d="M62.6191,409.0106 Q62.041,409.3075 61.4004,409.4481 Q60.7598,409.6044 60.0566,409.6044 Q57.5566,409.6044 56.2285,407.9638 Q54.916,406.3075 54.916,403.1825 Q54.916,400.0575 56.2285,398.4013 Q57.5566,396.745 60.0566,396.745 Q60.7598,396.745 61.4004,396.9013 Q62.0566,397.0575 62.6191,397.3544 L62.6191,400.0731 Q61.9941,399.495 61.4004,399.2294 Q60.8066,398.9481 60.1816,398.9481 Q58.8379,398.9481 58.1504,400.0263 Q57.4629,401.0888 57.4629,403.1825 Q57.4629,405.2763 58.1504,406.3544 Q58.8379,407.4169 60.1816,407.4169 Q60.8066,407.4169 61.4004,407.1513 Q61.9941,406.87 62.6191,406.2919 L62.6191,409.0106 Z " fill="#000000"/><text fill="#000000" font-family="sans-serif" font-size="14" lengthAdjust="spacing" textLength="61.3594" x="80.1504" y="408.2167">Message</text><line style="stroke:#181818;stroke-width:0.5;" x1="8" x2="181.1602" y1="419.37" y2="419.37"/><rect fill="none" height="6" style="stroke:#C82930;stroke-width:1;" width="6" x="15" y="430.0184"/><text fill="#000000" font-family="sans-serif" font-size="14" lengthAdjust="spacing" textLength="40.1953" x="27" y="436.3651">id: int</text><rect fill="none" height="6" style="stroke:#C82930;stroke-width:1;" width="6" x="15" y="446.3153"/><text fill="#000000" font-family="sans-serif" font-size="14" lengthAdjust="spacing" textLength="84.6904" x="27" y="452.662">contenu: str</text><rect fill="none" height="6" style="stroke:#C82930;stroke-width:1;" width="6" x="15" y="462.6122"/><text fill="#000000" font-family="sans-serif" font-size="14" lengthAdjust="spacing" textLength="149.1602" x="27" y="468.9589">date_envoi: datetime</text><line style="stroke:#181818;stroke-width:0.5;" x1="8" x2="181.1602" y1="476.2606" y2="476.2606"/></g><!--reverse link Utilisateur to Vendeur--><g class="link" data-entity-1="Utilisateur" data-entity-2="Vendeur" data-source-line="22" data-uid="lnk5" id="link_Utilisateur_Vendeur"><path codeLine="22" d="M293.9494,325.7965 C310.6794,351.2765 319.19,364.21 334.26,387.14" fill="none" id="Utilisateur-backto-Vendeur" style="stroke:#181818;stroke-width:1;"/><polygon fill="none" points="284.07,310.75,288.9339,329.0896,298.9649,322.5033,284.07,310.75" style="stroke:#181818;stroke-width:1;"/></g><!--reverse link Utilisateur to Acheteur--><g class="link" data-entity-1="Utilisateur" data-entity-2="Acheteur" data-source-line="23" data-uid="lnk6" id="link_Utilisateur_Acheteur"><path codeLine="23" d="M235.9235,328.7496 C235.6835,365.8396 235.58,393.74 235.58,434.82 C235.58,434.82 235.58,434.82 235.58,866.08 C235.58,915.73 254.19,969.6 270.32,1006.99" fill="none" id="Utilisateur-backto-Acheteur" style="stroke:#181818;stroke-width:1;"/><polygon fill="none" points="236.04,310.75,229.9237,328.7108,241.9234,328.7884,236.04,310.75" style="stroke:#181818;stroke-width:1;"/></g><!--link Vendeur to Produit--><g class="link" data-entity-1="Vendeur" data-entity-2="Produit" data-source-line="35" data-uid="lnk8" id="link_Vendeur_Produit"><path codeLine="35" d="M365.11,484.76 C364.89,507.42 364.62,535.1 364.37,560.85" fill="none" id="Vendeur-Produit" style="stroke:#181818;stroke-width:1;"/><text fill="#000000" font-family="sans-serif" font-size="13" lengthAdjust="spacing" textLength="32.1826" x="365.58" y="527.3269">vend</text><text fill="#000000" font-family="sans-serif" font-size="13" lengthAdjust="spacing" textLength="8.271" x="356.5276" y="504.4206">1</text><text fill="#000000" font-family="sans-serif" font-size="13" lengthAdjust="spacing" textLength="23.0356" x="340.4509" y="550.2785">0..*</text></g><!--link Vendeur to Article--><g class="link" data-entity-1="Vendeur" data-entity-2="Article" data-source-line="58" data-uid="lnk13" id="link_Vendeur_Article"><path codeLine="58" d="M407.57,484.6 C424.31,506.47 441.88,533.63 451.58,561.26 C503.15,708.09 499.24,894.29 492.56,990.51" fill="none" id="Vendeur-Article" style="stroke:#181818;stroke-width:1;"/><text fill="#000000" font-family="sans-serif" font-size="13" lengthAdjust="spacing" textLength="29.1992" x="492.58" y="766.4069">&#233;crit</text><text fill="#000000" font-family="sans-serif" font-size="13" lengthAdjust="spacing" textLength="8.271" x="404.6932" y="504.2391">1</text><text fill="#000000" font-family="sans-serif" font-size="13" lengthAdjust="spacing" textLength="23.0356" x="468.9587" y="979.6477">0..*</text></g><!--link Article to Commentaire--><g class="link" data-entity-1="Article" data-entity-2="Commentaire" data-source-line="59" data-uid="lnk14" id="link_Article_Commentaire"><path codeLine="59" d="M425.09,1120.6 C409.78,1136.11 393.26,1152.48 377.58,1167.31 C367.23,1177.1 355.96,1187.32 345.05,1197.02" fill="none" id="Article-Commentaire" style="stroke:#181818;stroke-width:1;"/><text fill="#000000" font-family="sans-serif" font-size="13" lengthAdjust="spacing" textLength="8.271" x="409.9424" y="1140.6069">1</text><text fill="#000000" font-family="sans-serif" font-size="13" lengthAdjust="spacing" textLength="23.0356" x="328.2362" y="1186.1881">0..*</text></g><!--link Article to Like--><g class="link" data-entity-1="Article" data-entity-2="Like" data-source-line="60" data-uid="lnk15" id="link_Article_Like"><path codeLine="60" d="M467.81,1120.8 C458.69,1152 448.14,1188.09 440.79,1213.25" fill="none" id="Article-Like" style="stroke:#181818;stroke-width:1;"/><text fill="#000000" font-family="sans-serif" font-size="13" lengthAdjust="spacing" textLength="8.271" x="457.4763" y="1140.3738">1</text><text fill="#000000" font-family="sans-serif" font-size="13" lengthAdjust="spacing" textLength="23.0356" x="417.3431" y="1202.4533">0..*</text></g><!--link Article to Tag--><g class="link" data-entity-1="Article" data-entity-2="Tag" data-source-line="61" data-uid="lnk16" id="link_Article_Tag"><path codeLine="61" d="M552.91,1111.69 C562.94,1123.34 571.84,1136.36 577.58,1150.31 C584.63,1167.44 585.66,1187.85 584.6,1205.31" fill="none" id="Article-Tag" style="stroke:#181818;stroke-width:1;"/><polygon fill="#000000" points="588.1831,1163.6124,588.0668,1154.1026,582.4993,1155.9872,588.1831,1163.6124" style="stroke:#000000;stroke-width:1;"/><text fill="#000000" font-family="sans-serif" font-size="13" lengthAdjust="spacing" textLength="53.9995" x="595.58" y="1163.3769">poss&#232;de</text><text fill="#000000" font-family="sans-serif" font-size="13" lengthAdjust="spacing" textLength="8.271" x="560.6177" y="1114.0817">1</text><text fill="#000000" font-family="sans-serif" font-size="13" lengthAdjust="spacing" textLength="6.5" x="579.1414" y="1194.4467">*</text></g><!--link Tag to Article--><g class="link" data-entity-1="Tag" data-entity-2="Article" data-source-line="62" data-uid="lnk17" id="link_Tag_Article"><path codeLine="62" d="M535.75,1217.87 C518.87,1204.83 501.23,1187.58 491.58,1167.31 C484.8,1153.06 481.85,1136.58 480.97,1120.75" fill="none" id="Tag-Article" style="stroke:#181818;stroke-width:1;"/><polygon fill="#000000" points="494.1236,1154.5214,496.0075,1163.8435,501.1271,1160.9558,494.1236,1154.5214" style="stroke:#000000;stroke-width:1;"/><text fill="#000000" font-family="sans-serif" font-size="13" lengthAdjust="spacing" textLength="63.248" x="505.58" y="1163.3769">tagu&#233; par</text><text fill="#000000" font-family="sans-serif" font-size="13" lengthAdjust="spacing" textLength="6.5" x="521.6309" y="1208.6454">*</text><text fill="#000000" font-family="sans-serif" font-size="13" lengthAdjust="spacing" textLength="6.5" x="474.1084" y="1140.3186">*</text></g><!--link Acheteur to Commentaire--><g class="link" data-entity-1="Acheteur" data-entity-2="Commentaire" data-source-line="64" data-uid="lnk18" id="link_Acheteur_Commentaire"><path codeLine="64" d="M275.13,1104.47 C269.67,1123.84 265.81,1146.5 268.58,1167.31 C269.87,1176.98 272.02,1187.15 274.47,1196.82" fill="none" id="Acheteur-Commentaire" style="stroke:#181818;stroke-width:1;"/><text fill="#000000" font-family="sans-serif" font-size="13" lengthAdjust="spacing" textLength="29.1992" x="269.58" y="1163.3769">&#233;crit</text><text fill="#000000" font-family="sans-serif" font-size="13" lengthAdjust="spacing" textLength="8.271" x="264.1316" y="1124.1252">1</text><text fill="#000000" font-family="sans-serif" font-size="13" lengthAdjust="spacing" textLength="23.0356" x="247.8971" y="1186.3123">0..*</text></g><!--link Acheteur to Like--><g class="link" data-entity-1="Acheteur" data-entity-2="Like" data-source-line="65" data-uid="lnk19" id="link_Acheteur_Like"><path codeLine="65" d="M328.4,1104.05 C353.48,1138.24 386.6,1183.42 408.47,1213.24" fill="none" id="Acheteur-Like" style="stroke:#181818;stroke-width:1;"/><text fill="#000000" font-family="sans-serif" font-size="13" lengthAdjust="spacing" textLength="32.2397" x="371.58" y="1163.3769">aime</text><text fill="#000000" font-family="sans-serif" font-size="13" lengthAdjust="spacing" textLength="8.271" x="324.7532" y="1123.9991">1</text><text fill="#000000" font-family="sans-serif" font-size="13" lengthAdjust="spacing" textLength="23.0356" x="378.6601" y="1202.4413">0..*</text></g><!--link Achat to Produit--><g class="link" data-entity-1="Achat" data-entity-2="Produit" data-source-line="75" data-uid="lnk21" id="link_Achat_Produit"><path codeLine="75" d="M325.21,799.88 C321.24,790.23 317.82,780.2 315.58,770.34 C312.07,754.94 313.69,738.9 317.99,723.6" fill="none" id="Achat-Produit" style="stroke:#181818;stroke-width:1;"/><text fill="#000000" font-family="sans-serif" font-size="13" lengthAdjust="spacing" textLength="60.0679" x="316.58" y="766.4069">concerne</text><text fill="#000000" font-family="sans-serif" font-size="13" lengthAdjust="spacing" textLength="8.271" x="313.1639" y="789.4563">1</text><text fill="#000000" font-family="sans-serif" font-size="13" lengthAdjust="spacing" textLength="8.271" x="305.7398" y="743.3039">1</text></g><!--link Produit to Achat--><g class="link" data-entity-1="Produit" data-entity-2="Achat" data-source-line="77" data-uid="lnk23" id="link_Produit_Achat"><path codeLine="77" d="M381.1,723.51 C382.75,739.03 383.26,755.17 381.58,770.34 C380.52,779.96 378.86,790.03 376.93,799.85" fill="none" id="Produit-Achat" style="stroke:#181818;stroke-width:1;"/><text fill="#000000" font-family="sans-serif" font-size="13" lengthAdjust="spacing" textLength="8.271" x="374.316" y="743.4836">1</text><text fill="#000000" font-family="sans-serif" font-size="13" lengthAdjust="spacing" textLength="23.0356" x="354.4319" y="789.4232">0..*</text></g><!--link Achat to Acheteur--><g class="link" data-entity-1="Achat" data-entity-2="Acheteur" data-source-line="76" data-uid="lnk22" id="link_Achat_Acheteur"><path codeLine="76" d="M337.8,930.16 C328.89,955.24 318.84,983.5 310.58,1006.75" fill="none" id="Achat-Acheteur" style="stroke:#181818;stroke-width:1;"/><text fill="#000000" font-family="sans-serif" font-size="13" lengthAdjust="spacing" textLength="8.271" x="327.0522" y="949.7183">1</text><text fill="#000000" font-family="sans-serif" font-size="13" lengthAdjust="spacing" textLength="8.271" x="304.4273" y="995.9069">1</text></g><!--link Utilisateur to Message--><g class="link" data-entity-1="Utilisateur" data-entity-2="Message" data-source-line="89" data-uid="lnk26" id="link_Utilisateur_Message"><path codeLine="89" d="M184.31,310.75 C165.88,336.23 145.65,364.21 129.06,387.14" fill="none" id="Utilisateur-Message" style="stroke:#181818;stroke-width:1;"/><text fill="#000000" font-family="sans-serif" font-size="13" lengthAdjust="spacing" textLength="43.4941" x="161.58" y="353.4369">envoie</text><text fill="#000000" font-family="sans-serif" font-size="13" lengthAdjust="spacing" textLength="8.271" x="170.9593" y="330.5216">1</text><text fill="#000000" font-family="sans-serif" font-size="13" lengthAdjust="spacing" textLength="6.5" x="127.522" y="376.3166">*</text></g><!--link Conversation to Message--><g class="link" data-entity-1="Conversation" data-entity-2="Message" data-source-line="90" data-uid="lnk27" id="link_Conversation_Message"><path codeLine="90" d="M120.61,87.84 C115.25,159.32 103.96,309.75 98.17,386.92" fill="none" id="Conversation-Message" style="stroke:#181818;stroke-width:1;"/><text fill="#000000" font-family="sans-serif" font-size="13" lengthAdjust="spacing" textLength="8.271" x="111.521" y="107.5744">1</text><text fill="#000000" font-family="sans-serif" font-size="13" lengthAdjust="spacing" textLength="6.5" x="92.2829" y="376.4177">*</text></g><!--link Conversation to Utilisateur--><g class="link" data-entity-1="Conversation" data-entity-2="Utilisateur" data-source-line="91" data-uid="lnk28" id="link_Conversation_Utilisateur"><path codeLine="91" d="M147.27,87.74 C160.6,109.95 177.66,138.36 193.29,164.39" fill="none" id="Conversation-Utilisateur" style="stroke:#181818;stroke-width:1;"/><text fill="#000000" font-family="sans-serif" font-size="13" lengthAdjust="spacing" textLength="77.3589" x="173.58" y="130.6569">participants</text><text fill="#000000" font-family="sans-serif" font-size="13" lengthAdjust="spacing" textLength="6.5" x="144.7385" y="107.7585">*</text><text fill="#000000" font-family="sans-serif" font-size="13" lengthAdjust="spacing" textLength="8.271" x="180.6479" y="153.5303">2</text></g><!--SRC=[XLJBRjim4BppAmXVqWSSD3qARG7LDL833X9OTgy69MtSRILIfIWZGEl_gR_3FvQbdjGZhK_MxknoTdR8A_wn_F75sW-2PS1tszLw5VZRvMuJr3acmjne4HaU9IBF-SvWWhamK6Z-ct4-vnXx7AKf_nSvQ2bIy3WLbH581IRTPwhCFePzHgqSa5Q9ynLJzptAFDAO6LJIAoFin5X5uHl8k3i-L8N1NmNifKgR7c-v-45Xq0zQnGMQLw_BOAJa8-eKD7KmGC5JtT6FlaCx4HMNdwFYDBLbsjS6emJgS88_tH2HT1Nwy6S-R_YE4ysnZ5qrctZOt7_PhRQj-XM_cic4u0QDTgK3HpK3JnKeq_ZayST4YUeRKt5mYp3FbCJGxY1KAkcMKAhOoj_eFhkPSM8_UtTz_MRMSlFuaVBEA9_NzxVzCMgP_Zy6BSg0B9mHXfGjkwm8MsxL0OjgHmBrr27ZhhQuQc4mxTfinM6YlFLN0rlJwWSuMl-qIite7h-SQKE6DO4-p1dW1OGzT9IYkENiyKpb-ULl3FmJim6RgFCT0ICEnUNCCw49nLhhlqZ4uJoDBNNmkB0ITklt5r_zeO-fWPXoiOWrz1w4mQjHcT4Mrmklrsbly-LSk_R4glODkHlNcmIEw6c2CQQzX0rui3YBTyQwMmQ1VxlSh9RzqHPA7a7JxQQhDp5XEK6aGNGFMizoTpG_EVnVhks90VAeiDV7VLqSNpIDFLwM0EiH7GC7-Tf0xsUzXz-pxY4_OIQaoPy1]--></g></svg>