<svg xmlns="http://www.w3.org/2000/svg" xmlns:xlink="http://www.w3.org/1999/xlink" contentStyleType="text/css" data-diagram-type="SEQUENCE" height="609px" preserveAspectRatio="none" style="width:1142px;height:609px;background:#FFFFFF;" version="1.1" viewBox="0 0 1142 609" width="1142px" zoomAndPan="magnify"><defs/><g><g><title>Acheteur</title><rect fill="#000000" fill-opacity="0.00000" height="447.8594" width="8" x="35.7461" y="81.2969"/><line style="stroke:#181818;stroke-width:0.5;stroke-dasharray:5.0,5.0;" x1="39" x2="39" y1="81.2969" y2="529.1563"/></g><g><title>Vendeur</title><rect fill="#000000" fill-opacity="0.00000" height="447.8594" width="8" x="113.0884" y="81.2969"/><line style="stroke:#181818;stroke-width:0.5;stroke-dasharray:5.0,5.0;" x1="116.4922" x2="116.4922" y1="81.2969" y2="529.1563"/></g><g><title>Vue Produit</title><rect fill="#000000" fill-opacity="0.00000" height="447.8594" width="8" x="203.3926" y="81.2969"/><line style="stroke:#181818;stroke-width:0.5;stroke-dasharray:5.0,5.0;" x1="206.6846" x2="206.6846" y1="81.2969" y2="529.1563"/></g><g><title>Formulaire d&#8217;achat</title><rect fill="#000000" fill-opacity="0.00000" height="447.8594" width="8" x="450.7983" y="81.2969"/><line style="stroke:#181818;stroke-width:0.5;stroke-dasharray:5.0,5.0;" x1="454.4897" x2="454.4897" y1="81.2969" y2="529.1563"/></g><g><title>Backend Django</title><rect fill="#000000" fill-opacity="0.00000" height="447.8594" width="8" x="627.7515" y="81.2969"/><line style="stroke:#181818;stroke-width:0.5;stroke-dasharray:5.0,5.0;" x1="631.5586" x2="631.5586" y1="81.2969" y2="529.1563"/></g><g><title>SMTP Server</title><rect fill="#000000" fill-opacity="0.00000" height="447.8594" width="8" x="905.9688" y="81.2969"/><line style="stroke:#181818;stroke-width:0.5;stroke-dasharray:5.0,5.0;" x1="909.8086" x2="909.8086" y1="81.2969" y2="529.1563"/></g><g><title>Base de donn&#233;es</title><rect fill="#000000" fill-opacity="0.00000" height="447.8594" width="8" x="1034.2339" y="81.2969"/><line style="stroke:#181818;stroke-width:0.5;stroke-dasharray:5.0,5.0;" x1="1038.1289" x2="1038.1289" y1="81.2969" y2="529.1563"/></g><g class="participant participant-head" data-participant="Acheteur"><text fill="#000000" font-family="sans-serif" font-size="14" lengthAdjust="spacing" textLength="63.4922" x="5" y="77.9951">Acheteur</text><ellipse cx="39.7461" cy="13.5" fill="#E2E2F0" rx="8" ry="8" style="stroke:#181818;stroke-width:0.5;"/><path d="M39.7461,21.5 L39.7461,48.5 M26.7461,29.5 L52.7461,29.5 M39.7461,48.5 L26.7461,63.5 M39.7461,48.5 L52.7461,63.5" fill="none" style="stroke:#181818;stroke-width:0.5;"/></g><g class="participant participant-tail" data-participant="Acheteur"><text fill="#000000" font-family="sans-serif" font-size="14" lengthAdjust="spacing" textLength="63.4922" x="5" y="541.1514">Acheteur</text><ellipse cx="39.7461" cy="552.9531" fill="#E2E2F0" rx="8" ry="8" style="stroke:#181818;stroke-width:0.5;"/><path d="M39.7461,560.9531 L39.7461,587.9531 M26.7461,568.9531 L52.7461,568.9531 M39.7461,587.9531 L26.7461,602.9531 M39.7461,587.9531 L52.7461,602.9531" fill="none" style="stroke:#181818;stroke-width:0.5;"/></g><g class="participant participant-head" data-participant="Vendeur"><text fill="#000000" font-family="sans-serif" font-size="14" lengthAdjust="spacing" textLength="59.1924" x="84.4922" y="77.9951">Vendeur</text><ellipse cx="117.0884" cy="13.5" fill="#E2E2F0" rx="8" ry="8" style="stroke:#181818;stroke-width:0.5;"/><path d="M117.0884,21.5 L117.0884,48.5 M104.0884,29.5 L130.0884,29.5 M117.0884,48.5 L104.0884,63.5 M117.0884,48.5 L130.0884,63.5" fill="none" style="stroke:#181818;stroke-width:0.5;"/></g><g class="participant participant-tail" data-participant="Vendeur"><text fill="#000000" font-family="sans-serif" font-size="14" lengthAdjust="spacing" textLength="59.1924" x="84.4922" y="541.1514">Vendeur</text><ellipse cx="117.0884" cy="552.9531" fill="#E2E2F0" rx="8" ry="8" style="stroke:#181818;stroke-width:0.5;"/><path d="M117.0884,560.9531 L117.0884,587.9531 M104.0884,568.9531 L130.0884,568.9531 M117.0884,587.9531 L104.0884,602.9531 M117.0884,587.9531 L130.0884,602.9531" fill="none" style="stroke:#181818;stroke-width:0.5;"/></g><g class="participant participant-head" data-participant="ProduitView"><rect fill="#E2E2F0" height="30.2969" rx="2.5" ry="2.5" style="stroke:#181818;stroke-width:0.5;" width="95.416" x="159.6846" y="50"/><text fill="#000000" font-family="sans-serif" font-size="14" lengthAdjust="spacing" textLength="81.416" x="166.6846" y="69.9951">Vue Produit</text></g><g class="participant participant-tail" data-participant="ProduitView"><rect fill="#E2E2F0" height="30.2969" rx="2.5" ry="2.5" style="stroke:#181818;stroke-width:0.5;" width="95.416" x="159.6846" y="528.1563"/><text fill="#000000" font-family="sans-serif" font-size="14" lengthAdjust="spacing" textLength="81.416" x="166.6846" y="548.1514">Vue Produit</text></g><g class="participant participant-head" data-participant="Form"><rect fill="#E2E2F0" height="30.2969" rx="2.5" ry="2.5" style="stroke:#181818;stroke-width:0.5;" width="146.6172" x="381.4897" y="50"/><text fill="#000000" font-family="sans-serif" font-size="14" lengthAdjust="spacing" textLength="132.6172" x="388.4897" y="69.9951">Formulaire d&#8217;achat</text></g><g class="participant participant-tail" data-participant="Form"><rect fill="#E2E2F0" height="30.2969" rx="2.5" ry="2.5" style="stroke:#181818;stroke-width:0.5;" width="146.6172" x="381.4897" y="528.1563"/><text fill="#000000" font-family="sans-serif" font-size="14" lengthAdjust="spacing" textLength="132.6172" x="388.4897" y="548.1514">Formulaire d&#8217;achat</text></g><g class="participant participant-head" data-participant="Django"><rect fill="#E2E2F0" height="30.2969" rx="2.5" ry="2.5" style="stroke:#181818;stroke-width:0.5;" width="128.3857" x="567.5586" y="50"/><text fill="#000000" font-family="sans-serif" font-size="14" lengthAdjust="spacing" textLength="114.3857" x="574.5586" y="69.9951">Backend Django</text></g><g class="participant participant-tail" data-participant="Django"><rect fill="#E2E2F0" height="30.2969" rx="2.5" ry="2.5" style="stroke:#181818;stroke-width:0.5;" width="128.3857" x="567.5586" y="528.1563"/><text fill="#000000" font-family="sans-serif" font-size="14" lengthAdjust="spacing" textLength="114.3857" x="574.5586" y="548.1514">Backend Django</text></g><g class="participant participant-head" data-participant="SMTP"><rect fill="#E2E2F0" height="30.2969" rx="2.5" ry="2.5" style="stroke:#181818;stroke-width:0.5;" width="102.3203" x="858.8086" y="50"/><text fill="#000000" font-family="sans-serif" font-size="14" lengthAdjust="spacing" textLength="88.3203" x="865.8086" y="69.9951">SMTP Server</text></g><g class="participant participant-tail" data-participant="SMTP"><rect fill="#E2E2F0" height="30.2969" rx="2.5" ry="2.5" style="stroke:#181818;stroke-width:0.5;" width="102.3203" x="858.8086" y="528.1563"/><text fill="#000000" font-family="sans-serif" font-size="14" lengthAdjust="spacing" textLength="88.3203" x="865.8086" y="548.1514">SMTP Server</text></g><g class="participant participant-head" data-participant="DB"><rect fill="#E2E2F0" height="30.2969" rx="2.5" ry="2.5" style="stroke:#181818;stroke-width:0.5;" width="134.21" x="971.1289" y="50"/><text fill="#000000" font-family="sans-serif" font-size="14" lengthAdjust="spacing" textLength="120.21" x="978.1289" y="69.9951">Base de donn&#233;es</text></g><g class="participant participant-tail" data-participant="DB"><rect fill="#E2E2F0" height="30.2969" rx="2.5" ry="2.5" style="stroke:#181818;stroke-width:0.5;" width="134.21" x="971.1289" y="528.1563"/><text fill="#000000" font-family="sans-serif" font-size="14" lengthAdjust="spacing" textLength="120.21" x="978.1289" y="548.1514">Base de donn&#233;es</text></g><g class="message" data-participant-1="Acheteur" data-participant-2="ProduitView"><polygon fill="#181818" points="195.3926,108.4297,205.3926,112.4297,195.3926,116.4297,199.3926,112.4297" style="stroke:#181818;stroke-width:1;"/><line style="stroke:#181818;stroke-width:1;" x1="39.7461" x2="201.3926" y1="112.4297" y2="112.4297"/><text fill="#000000" font-family="sans-serif" font-size="13" lengthAdjust="spacing" textLength="132.0884" x="46.7461" y="107.3638">Clique sur "Acheter"</text></g><g class="message" data-participant-1="ProduitView" data-participant-2="Form"><polygon fill="#181818" points="442.7983,137.5625,452.7983,141.5625,442.7983,145.5625,446.7983,141.5625" style="stroke:#181818;stroke-width:1;"/><line style="stroke:#181818;stroke-width:1;" x1="207.3926" x2="448.7983" y1="141.5625" y2="141.5625"/><text fill="#000000" font-family="sans-serif" font-size="13" lengthAdjust="spacing" textLength="223.4058" x="214.3926" y="136.4966">Affiche formulaire de confirmation</text></g><g class="message" data-participant-1="Acheteur" data-participant-2="Form"><polygon fill="#181818" points="442.7983,166.6953,452.7983,170.6953,442.7983,174.6953,446.7983,170.6953" style="stroke:#181818;stroke-width:1;"/><line style="stroke:#181818;stroke-width:1;" x1="39.7461" x2="448.7983" y1="170.6953" y2="170.6953"/><text fill="#000000" font-family="sans-serif" font-size="13" lengthAdjust="spacing" textLength="178.3882" x="46.7461" y="165.6294">Renseigne adresse + email</text></g><g class="message" data-participant-1="Form" data-participant-2="Django"><polygon fill="#181818" points="619.7515,195.8281,629.7515,199.8281,619.7515,203.8281,623.7515,199.8281" style="stroke:#181818;stroke-width:1;"/><line style="stroke:#181818;stroke-width:1;" x1="454.7983" x2="625.7515" y1="199.8281" y2="199.8281"/><text fill="#000000" font-family="sans-serif" font-size="13" lengthAdjust="spacing" textLength="152.9531" x="461.7983" y="194.7622">POST /confirmer_achat/</text></g><g class="message" data-participant-1="Django" data-participant-2="DB"><polygon fill="#181818" points="1026.2339,224.9609,1036.2339,228.9609,1026.2339,232.9609,1030.2339,228.9609" style="stroke:#181818;stroke-width:1;"/><line style="stroke:#181818;stroke-width:1;" x1="631.7515" x2="1032.2339" y1="228.9609" y2="228.9609"/><text fill="#000000" font-family="sans-serif" font-size="13" lengthAdjust="spacing" textLength="242.0615" x="638.7515" y="223.895">Enregistre l'achat (&#233;tat = en attente)</text></g><g class="message" data-participant-1="Django" data-participant-2="SMTP"><polygon fill="#181818" points="897.9688,254.0938,907.9688,258.0938,897.9688,262.0938,901.9688,258.0938" style="stroke:#181818;stroke-width:1;"/><line style="stroke:#181818;stroke-width:1;" x1="631.7515" x2="903.9688" y1="258.0938" y2="258.0938"/><text fill="#000000" font-family="sans-serif" font-size="13" lengthAdjust="spacing" textLength="145.6914" x="638.7515" y="253.0278">Envoie mail &#224; vendeur</text></g><g class="message" data-participant-1="Django" data-participant-2="SMTP"><polygon fill="#181818" points="897.9688,283.2266,907.9688,287.2266,897.9688,291.2266,901.9688,287.2266" style="stroke:#181818;stroke-width:1;"/><line style="stroke:#181818;stroke-width:1;" x1="631.7515" x2="903.9688" y1="287.2266" y2="287.2266"/><text fill="#000000" font-family="sans-serif" font-size="13" lengthAdjust="spacing" textLength="149.957" x="638.7515" y="282.1606">Envoie mail &#224; acheteur</text></g><path d="M914,300.2266 L914,325.2266 L1130,325.2266 L1130,310.2266 L1120,300.2266 L914,300.2266" fill="#FEFFDD" style="stroke:#181818;stroke-width:0.5;"/><path d="M1120,300.2266 L1120,310.2266 L1130,310.2266 L1120,300.2266" fill="#FEFFDD" style="stroke:#181818;stroke-width:0.5;"/><text fill="#000000" font-family="sans-serif" font-size="13" lengthAdjust="spacing" textLength="195.3618" x="920" y="317.2935">Email de confirmation d'achat</text><rect fill="#EEEEEE" height="3" style="stroke:#EEEEEE;stroke-width:1;" width="1135.3618" x="0" y="350.9258"/><line style="stroke:#000000;stroke-width:1;" x1="0" x2="1135.3618" y1="350.9258" y2="350.9258"/><line style="stroke:#000000;stroke-width:1;" x1="0" x2="1135.3618" y1="353.9258" y2="353.9258"/><rect fill="#EEEEEE" height="23.1328" style="stroke:#000000;stroke-width:2;" width="129.1719" x="503.095" y="340.3594"/><text fill="#000000" font-family="sans-serif" font-size="13" font-weight="bold" lengthAdjust="spacing" textLength="110.646" x="509.095" y="356.4263">Partie Vendeur</text><g class="message" data-participant-1="Vendeur" data-participant-2="Django"><polygon fill="#181818" points="619.7515,390.625,629.7515,394.625,619.7515,398.625,623.7515,394.625" style="stroke:#181818;stroke-width:1;"/><line style="stroke:#181818;stroke-width:1;" x1="117.0884" x2="625.7515" y1="394.625" y2="394.625"/><text fill="#000000" font-family="sans-serif" font-size="13" lengthAdjust="spacing" textLength="171.1709" x="124.0884" y="389.5591">Acc&#232;de &#224; sa liste de vente</text></g><g class="message" data-participant-1="Vendeur" data-participant-2="Django"><polygon fill="#181818" points="619.7515,419.7578,629.7515,423.7578,619.7515,427.7578,623.7515,423.7578" style="stroke:#181818;stroke-width:1;"/><line style="stroke:#181818;stroke-width:1;" x1="117.0884" x2="625.7515" y1="423.7578" y2="423.7578"/><text fill="#000000" font-family="sans-serif" font-size="13" lengthAdjust="spacing" textLength="203.0488" x="124.0884" y="418.6919">Clique sur "Confirmer la vente"</text></g><g class="message" data-participant-1="Django" data-participant-2="DB"><polygon fill="#181818" points="1026.2339,448.8906,1036.2339,452.8906,1026.2339,456.8906,1030.2339,452.8906" style="stroke:#181818;stroke-width:1;"/><line style="stroke:#181818;stroke-width:1;" x1="631.7515" x2="1032.2339" y1="452.8906" y2="452.8906"/><text fill="#000000" font-family="sans-serif" font-size="13" lengthAdjust="spacing" textLength="250.7388" x="638.7515" y="447.8247">Marque le produit comme indisponible</text></g><g class="message" data-participant-1="Django" data-participant-2="DB"><polygon fill="#181818" points="1026.2339,478.0234,1036.2339,482.0234,1026.2339,486.0234,1030.2339,482.0234" style="stroke:#181818;stroke-width:1;"/><line style="stroke:#181818;stroke-width:1;" x1="631.7515" x2="1032.2339" y1="482.0234" y2="482.0234"/><text fill="#000000" font-family="sans-serif" font-size="13" lengthAdjust="spacing" textLength="203.7915" x="638.7515" y="476.9575">Marque achat comme confirm&#233;</text></g><g class="message" data-participant-1="Django" data-participant-2="SMTP"><polygon fill="#181818" points="897.9688,507.1563,907.9688,511.1563,897.9688,515.1563,901.9688,511.1563" style="stroke:#181818;stroke-width:1;"/><line style="stroke:#181818;stroke-width:1;" x1="631.7515" x2="903.9688" y1="511.1563" y2="511.1563"/><text fill="#000000" font-family="sans-serif" font-size="13" lengthAdjust="spacing" textLength="254.2173" x="638.7515" y="506.0903">Envoie email de validation &#224; l&#8217;acheteur</text></g><!--SRC=[XPD1Rjim44NtFCL0cxG80ky3A82TjZiZHcruMqoaaJqfHJeahMvxZUowhC-Xc_Ga7P9I81ir2WWG2Ru_C_zJmYfO1_DgJu6EJc7QRidKSNT05xZY0ve0nVP8i7AsFd8e0FsutZBzE0U_MDSUDR8ZgF_yVCDgZraH3yxH1LRVfHTyUa6pimdAotDilToiO4sk8vUOkByivAMRFDQO_aG-breeDJg3kuVfn70FZvfVnPANio9Jhb1JH1HnOa7dJSD2G3DnHb1Pqx1hCR0rPtq6rLSoddXd2B1sv6N0Mw0MMQi429Yz2hfwMczWDXGazorbDbF3UIGNGdqsZdRiWxJNDmc13_qfoAi4Ce0Xa0dqSI9BmKLXPvaWzeR-5tJ3zVwFm_6hC3OGEDxj0zZc7KxOHGvGvy6KAajOnHkYyMk2ibJZSkfzNbNzRoaZ3Js25dyftIvw-QTWUd6FOsIWCKkAozIMw2Ak2GxvScNWjYLWKxC_MCFFcgveSiOP7rpsfwknqHX8Xvhh78UOqlaVI4d-1G00]--></g></svg>