<svg xmlns="http://www.w3.org/2000/svg" xmlns:xlink="http://www.w3.org/1999/xlink" contentStyleType="text/css" data-diagram-type="DESCRIPTION" height="897px" preserveAspectRatio="none" style="width:465px;height:897px;background:#FFFFFF;" version="1.1" viewBox="0 0 465 897" width="465px" zoomAndPan="magnify"><defs/><g><!--entity Visiteur--><g class="entity" data-entity="Visiteur" data-source-line="2" data-uid="ent0002" id="entity_Visiteur"><ellipse cx="76.4409" cy="212.96" fill="#F1F1F1" rx="8" ry="8" style="stroke:#181818;stroke-width:0.5;"/><path d="M76.4409,220.96 L76.4409,247.96 M63.4409,228.96 L89.4409,228.96 M76.4409,247.96 L63.4409,262.96 M76.4409,247.96 L89.4409,262.96" fill="none" style="stroke:#181818;stroke-width:0.5;"/><text fill="#000000" font-family="sans-serif" font-size="14" lengthAdjust="spacing" textLength="53.3818" x="49.75" y="277.4551">Visiteur</text></g><!--entity Utilisateur--><g class="entity" data-entity="Utilisateur" data-source-line="3" data-uid="ent0003" id="entity_Utilisateur"><ellipse cx="76.4409" cy="437.96" fill="#F1F1F1" rx="8" ry="8" style="stroke:#181818;stroke-width:0.5;"/><path d="M76.4409,445.96 L76.4409,472.96 M63.4409,453.96 L89.4409,453.96 M76.4409,472.96 L63.4409,487.96 M76.4409,472.96 L89.4409,487.96" fill="none" style="stroke:#181818;stroke-width:0.5;"/><text fill="#000000" font-family="sans-serif" font-size="14" lengthAdjust="spacing" textLength="140.8818" x="6" y="502.4551">Utilisateur connect&#233;</text></g><!--entity Vendeur--><g class="entity" data-entity="Vendeur" data-source-line="4" data-uid="ent0004" id="entity_Vendeur"><ellipse cx="76.4362" cy="732.96" fill="#F1F1F1" rx="8" ry="8" style="stroke:#181818;stroke-width:0.5;"/><path d="M76.4362,740.96 L76.4362,767.96 M63.4362,748.96 L89.4362,748.96 M76.4362,767.96 L63.4362,782.96 M76.4362,767.96 L89.4362,782.96" fill="none" style="stroke:#181818;stroke-width:0.5;"/><text fill="#000000" font-family="sans-serif" font-size="14" lengthAdjust="spacing" textLength="59.1924" x="46.84" y="797.4551">Vendeur</text></g><!--entity Admin--><g class="entity" data-entity="Admin" data-source-line="5" data-uid="ent0005" id="entity_Admin"><ellipse cx="76.4421" cy="44.96" fill="#F1F1F1" rx="8" ry="8" style="stroke:#181818;stroke-width:0.5;"/><path d="M76.4421,52.96 L76.4421,79.96 M63.4421,60.96 L89.4421,60.96 M76.4421,79.96 L63.4421,94.96 M76.4421,79.96 L89.4421,94.96" fill="none" style="stroke:#181818;stroke-width:0.5;"/><text fill="#000000" font-family="sans-serif" font-size="14" lengthAdjust="spacing" textLength="44.8643" x="54.01" y="109.4551">Admin</text></g><!--entity UC1--><g class="entity" data-entity="UC1" data-source-line="7" data-uid="ent0006" id="entity_UC1"><ellipse cx="333.0522" cy="202.6144" fill="#F1F1F1" rx="97.3722" ry="21.8744" style="stroke:#181818;stroke-width:0.5;"/><text fill="#000000" font-family="sans-serif" font-size="14" lengthAdjust="spacing" textLength="170.249" x="247.9277" y="207.2629">S'inscrire / Se connecter</text></g><!--entity UC2--><g class="entity" data-entity="UC2" data-source-line="8" data-uid="ent0007" id="entity_UC2"><ellipse cx="333.0516" cy="282.6063" fill="#F1F1F1" rx="103.4816" ry="23.0963" style="stroke:#181818;stroke-width:0.5;"/><text fill="#000000" font-family="sans-serif" font-size="14" lengthAdjust="spacing" textLength="183.7021" x="241.2005" y="287.2548">Consulter blog &amp; boutique</text></g><!--entity UC3--><g class="entity" data-entity="UC3" data-source-line="9" data-uid="ent0008" id="entity_UC3"><ellipse cx="333.053" cy="360.6106" fill="#F1F1F1" rx="89.903" ry="20.3806" style="stroke:#181818;stroke-width:0.5;"/><text fill="#000000" font-family="sans-serif" font-size="14" lengthAdjust="spacing" textLength="153.5215" x="256.2923" y="365.259">Commenter un article</text></g><!--entity UC4--><g class="entity" data-entity="UC4" data-source-line="10" data-uid="ent0009" id="entity_UC4"><ellipse cx="333.0464" cy="432.6093" fill="#F1F1F1" rx="69.3464" ry="16.2693" style="stroke:#181818;stroke-width:0.5;"/><text fill="#000000" font-family="sans-serif" font-size="14" lengthAdjust="spacing" textLength="104.7266" x="280.6831" y="437.2577">Liker un article</text></g><!--entity UC5--><g class="entity" data-entity="UC5" data-source-line="11" data-uid="ent0010" id="entity_UC5"><ellipse cx="333.0541" cy="649.6088" fill="#F1F1F1" rx="86.9441" ry="19.7888" style="stroke:#181818;stroke-width:0.5;"/><text fill="#000000" font-family="sans-serif" font-size="14" lengthAdjust="spacing" textLength="146.7881" x="259.6601" y="654.2573">Envoyer un message</text></g><!--entity UC6--><g class="entity" data-entity="UC6" data-source-line="12" data-uid="ent0011" id="entity_UC6"><ellipse cx="333.0472" cy="725.6054" fill="#F1F1F1" rx="95.3272" ry="21.4654" style="stroke:#181818;stroke-width:0.5;"/><text fill="#000000" font-family="sans-serif" font-size="14" lengthAdjust="spacing" textLength="165.7031" x="250.1956" y="730.2539">Cr&#233;er un article de blog</text></g><!--entity UC7--><g class="entity" data-entity="UC7" data-source-line="13" data-uid="ent0012" id="entity_UC7"><ellipse cx="333.0453" cy="800.6131" fill="#F1F1F1" rx="78.7653" ry="18.1531" style="stroke:#181818;stroke-width:0.5;"/><text fill="#000000" font-family="sans-serif" font-size="14" lengthAdjust="spacing" textLength="127.7568" x="269.1669" y="805.2615">Ajouter un produit</text></g><!--entity UC8--><g class="entity" data-entity="UC8" data-source-line="14" data-uid="ent0013" id="entity_UC8"><ellipse cx="333.0475" cy="502.6095" fill="#F1F1F1" rx="80.3975" ry="18.4795" style="stroke:#181818;stroke-width:0.5;"/><text fill="#000000" font-family="sans-serif" font-size="14" lengthAdjust="spacing" textLength="131.6123" x="267.2414" y="507.2579">Acheter un produit</text></g><!--entity UC9--><g class="entity" data-entity="UC9" data-source-line="15" data-uid="ent0014" id="entity_UC9"><ellipse cx="333.0536" cy="872.6107" fill="#F1F1F1" rx="80.1536" ry="18.4307" style="stroke:#181818;stroke-width:0.5;"/><text fill="#000000" font-family="sans-serif" font-size="14" lengthAdjust="spacing" textLength="131.0381" x="267.5345" y="877.2591">Confirmer la vente</text></g><!--entity UC10--><g class="entity" data-entity="UC10" data-source-line="16" data-uid="ent0015" id="entity_UC10"><ellipse cx="333.0456" cy="575.6131" fill="#F1F1F1" rx="84.3156" ry="19.2631" style="stroke:#181818;stroke-width:0.5;"/><text fill="#000000" font-family="sans-serif" font-size="14" lengthAdjust="spacing" textLength="140.7451" x="262.673" y="580.2616">Recevoir des emails</text></g><!--entity UC11--><g class="entity" data-entity="UC11" data-source-line="17" data-uid="ent0016" id="entity_UC11"><ellipse cx="333.0503" cy="30.6101" fill="#F1F1F1" rx="111.0503" ry="24.6101" style="stroke:#181818;stroke-width:0.5;"/><text fill="#000000" font-family="sans-serif" font-size="14" lengthAdjust="spacing" textLength="200.1494" x="232.9756" y="35.2585">G&#233;rer les utilisateurs &amp; r&#244;les</text></g><!--entity UC12--><g class="entity" data-entity="UC12" data-source-line="18" data-uid="ent0017" id="entity_UC12"><ellipse cx="333.0517" cy="117.6143" fill="#F1F1F1" rx="126.1717" ry="27.6343" style="stroke:#181818;stroke-width:0.5;"/><text fill="#000000" font-family="sans-serif" font-size="14" lengthAdjust="spacing" textLength="232.4766" x="216.8134" y="122.2628">Acc&#233;der aux API REST s&#233;curis&#233;es</text></g><!--link Visiteur to UC1--><g class="link" data-entity-1="Visiteur" data-entity-2="UC1" data-source-line="20" data-uid="lnk18" id="link_Visiteur_UC1"><path d="M103.26,238.55 C137.9,233.11 195.0627,224.1313 246.2327,216.0913" fill="none" id="Visiteur-to-UC1" style="stroke:#181818;stroke-width:1;"/><polygon fill="#181818" points="252.16,215.16,242.6482,212.6055,247.2206,215.9361,243.89,220.5085,252.16,215.16" style="stroke:#181818;stroke-width:1;"/></g><!--link Visiteur to UC2--><g class="link" data-entity-1="Visiteur" data-entity-2="UC2" data-source-line="21" data-uid="lnk19" id="link_Visiteur_UC2"><path d="M103.26,246.66 C136.82,251.94 191.1726,260.4795 241.4326,268.3695" fill="none" id="Visiteur-to-UC2" style="stroke:#181818;stroke-width:1;"/><polygon fill="#181818" points="247.36,269.3,239.0892,263.9526,242.4205,268.5246,237.8486,271.8558,247.36,269.3" style="stroke:#181818;stroke-width:1;"/></g><!--link Utilisateur to UC2--><g class="link" data-entity-1="Utilisateur" data-entity-2="UC2" data-source-line="22" data-uid="lnk20" id="link_Utilisateur_UC2"><path d="M102.87,429.09 C126.29,396.42 163.86,350.53 206.88,322.61 C222.48,312.49 235.1299,306.6333 252.8999,300.7933" fill="none" id="Utilisateur-to-UC2" style="stroke:#181818;stroke-width:1;"/><polygon fill="#181818" points="258.6,298.92,248.801,297.9299,253.8499,300.4811,251.2988,305.53,258.6,298.92" style="stroke:#181818;stroke-width:1;"/></g><!--link Utilisateur to UC3--><g class="link" data-entity-1="Utilisateur" data-entity-2="UC3" data-source-line="23" data-uid="lnk21" id="link_Utilisateur_UC3"><path d="M143.75,429.07 C163.66,418.38 185.82,407.32 206.88,398.61 C227.87,389.93 245.8009,383.9129 266.8809,377.7529" fill="none" id="Utilisateur-to-UC3" style="stroke:#181818;stroke-width:1;"/><polygon fill="#181818" points="272.64,376.07,262.8793,374.755,267.8407,377.4724,265.1232,382.4338,272.64,376.07" style="stroke:#181818;stroke-width:1;"/></g><!--link Utilisateur to UC4--><g class="link" data-entity-1="Utilisateur" data-entity-2="UC4" data-source-line="24" data-uid="lnk22" id="link_Utilisateur_UC4"><path d="M147.35,458 C186.51,452.62 228.8959,446.7871 266.2859,441.6471" fill="none" id="Utilisateur-to-UC4" style="stroke:#181818;stroke-width:1;"/><polygon fill="#181818" points="272.23,440.83,262.7691,438.093,267.2766,441.5109,263.8586,446.0184,272.23,440.83" style="stroke:#181818;stroke-width:1;"/></g><!--link Utilisateur to UC5--><g class="link" data-entity-1="Utilisateur" data-entity-2="UC5" data-source-line="25" data-uid="lnk23" id="link_Utilisateur_UC5"><path d="M102.49,506.04 C125.8,538.88 163.41,585.07 206.88,612.61 C224.3,623.65 239.3767,629.8764 259.0267,635.4364" fill="none" id="Utilisateur-to-UC5" style="stroke:#181818;stroke-width:1;"/><polygon fill="#181818" points="264.8,637.07,257.229,630.7707,259.9889,635.7087,255.0509,638.4685,264.8,637.07" style="stroke:#181818;stroke-width:1;"/></g><!--link Utilisateur to UC8--><g class="link" data-entity-1="Utilisateur" data-entity-2="UC8" data-source-line="26" data-uid="lnk24" id="link_Utilisateur_UC8"><path d="M147.35,477.22 C183.42,482.18 221.3159,487.3825 257.2359,492.3225" fill="none" id="Utilisateur-to-UC8" style="stroke:#181818;stroke-width:1;"/><polygon fill="#181818" points="263.18,493.14,254.8089,487.9511,258.2266,492.4588,253.7189,495.8765,263.18,493.14" style="stroke:#181818;stroke-width:1;"/></g><!--link Utilisateur to UC10--><g class="link" data-entity-1="Utilisateur" data-entity-2="UC10" data-source-line="27" data-uid="lnk25" id="link_Utilisateur_UC10"><path d="M141.28,506.16 C161.78,517.57 184.88,529.45 206.88,538.61 C228.43,547.58 247.1233,553.6982 268.6733,559.7482" fill="none" id="Utilisateur-to-UC10" style="stroke:#181818;stroke-width:1;"/><polygon fill="#181818" points="274.45,561.37,266.8662,555.0863,269.6361,560.0185,264.7038,562.7885,274.45,561.37" style="stroke:#181818;stroke-width:1;"/></g><!--link Vendeur to UC6--><g class="link" data-entity-1="Vendeur" data-entity-2="UC6" data-source-line="28" data-uid="lnk26" id="link_Vendeur_UC6"><path d="M106.15,758.44 C141.27,753.33 196.2323,745.3422 245.9523,738.1222" fill="none" id="Vendeur-to-UC6" style="stroke:#181818;stroke-width:1;"/><polygon fill="#181818" points="251.89,737.26,242.4086,734.5949,246.9419,737.9785,243.5582,742.5118,251.89,737.26" style="stroke:#181818;stroke-width:1;"/></g><!--link Vendeur to UC7--><g class="link" data-entity-1="Vendeur" data-entity-2="UC7" data-source-line="29" data-uid="lnk27" id="link_Vendeur_UC7"><path d="M106.15,766.89 C144.65,772.64 208.2058,782.1241 259.9858,789.8541" fill="none" id="Vendeur-to-UC7" style="stroke:#181818;stroke-width:1;"/><polygon fill="#181818" points="265.92,790.74,257.6092,785.455,260.9748,790.0018,256.428,793.3673,265.92,790.74" style="stroke:#181818;stroke-width:1;"/></g><!--link Vendeur to UC9--><g class="link" data-entity-1="Vendeur" data-entity-2="UC9" data-source-line="30" data-uid="lnk28" id="link_Vendeur_UC9"><path d="M106.48,781.91 C132.06,798.23 170.76,821.35 206.88,836.61 C228.75,845.85 247.9464,851.9997 269.8164,857.8897" fill="none" id="Vendeur-to-UC9" style="stroke:#181818;stroke-width:1;"/><polygon fill="#181818" points="275.61,859.45,267.9599,853.2471,270.782,858.1497,265.8794,860.9719,275.61,859.45" style="stroke:#181818;stroke-width:1;"/></g><!--link Vendeur to UC5--><g class="link" data-entity-1="Vendeur" data-entity-2="UC5" data-source-line="31" data-uid="lnk29" id="link_Vendeur_UC5"><path d="M106.43,742.81 C131.98,726.05 170.66,702.32 206.88,686.61 C227.57,677.64 245.3047,671.6765 266.3247,665.7565" fill="none" id="Vendeur-to-UC5" style="stroke:#181818;stroke-width:1;"/><polygon fill="#181818" points="272.1,664.13,262.3527,662.7196,267.2872,665.4855,264.5214,670.42,272.1,664.13" style="stroke:#181818;stroke-width:1;"/></g><!--link Admin to UC11--><g class="link" data-entity-1="Admin" data-entity-2="UC11" data-source-line="32" data-uid="lnk30" id="link_Admin_UC11"><path d="M99.15,70.86 C131.08,65.34 186.6075,55.7412 238.3675,46.8012" fill="none" id="Admin-to-UC11" style="stroke:#181818;stroke-width:1;"/><polygon fill="#181818" points="244.28,45.78,234.7305,43.3702,239.353,46.631,236.0921,51.2534,244.28,45.78" style="stroke:#181818;stroke-width:1;"/></g><!--link Admin to UC12--><g class="link" data-entity-1="Admin" data-entity-2="UC12" data-source-line="33" data-uid="lnk31" id="link_Admin_UC12"><path d="M99.15,78.28 C128.61,83.25 177.2939,91.4701 226.2239,99.7401" fill="none" id="Admin-to-UC12" style="stroke:#181818;stroke-width:1;"/><polygon fill="#181818" points="232.14,100.74,223.9325,95.2961,227.2099,99.9067,222.5992,103.1842,232.14,100.74" style="stroke:#181818;stroke-width:1;"/></g><!--SRC=[TP9BJiCm48RtESMe2rXLqFIzGQgg2Y6nG2rbxphJTY2nmOyAZfGzDyZ5SDAuJgEmYkUVRtvFnfFYte2HeEXmD92GGcv8YeXn8nNqtaYJGQjwm3Jum2UtXbBIh9I0Io5SQP5NP2DpSKAHN8pEPvzQ91c9Ab6TeiXgv4mZz3Qt93HNhYkuWmtwM_1iirqE0hgKGjlKfM2NoWFSm4vQGryMQpHkebc6eaIj0AOCyTHJmq0zqqSNCGh4Ifpapvd9K6jsyCouSPSgyYiRIB3gi4Od0LsykuxFxAUIYILJCzC6mu_OoSok9h4dbJagPN0gVxHcve5P8yUJ9EMwqO0PerJxaTu7wh78LMdZ61jULBlXgkBNgRvaq6oG5tdYYfZzXiNB4wnNcrVGHSwj8lS9HN4K-OM2Vl-XUisM44VD5VjV6tPeemvjtA7DEZGtWtf5Qs7IYgUjUDwAnr6roTvkS1t6Vm00]--></g></svg>